# xmcd
#
# Track frame offsets:
# 150
# 17560
# 33931
# 48691
# 63827
# 74506
# 89240
# 102126
# 116519
# 128958
# 143787
# 160100
# 176802
# 193222
# 207480
# 226773
# 244297
# 258218
#
# Disc length: 3746 seconds
#
#
# Revision: 0
# Processed by: cddbd v1.5.2PL0 Copyright (c) Steve Scherf et al.
# Submitted via: FreeRIP 2.95 
#
DISCID=070ea012
DTITLE=diverse - Let's go Country
DYEAR=2006
DGENRE=Country
TTITLE0=Mark Bender - Silberstreif am Horizont
TTITLE1=Suzie Candell - Breaking rules again
TTITLE2=Kevin Henderson - Do she do
TTITLE3=Kim West - Strasse der Vergangenheit
TTITLE4=Dusty - Living in a House of Love
TTITLE5=Katja Kaye - On my Way
TTITLE6=The Krauts - Julie
TTITLE7=Simple Union - Unlove me
TTITLE8=Lonestar - The Blizzard
TTITLE9=Mark Bender - Stille Wasser
TTITLE10=Suzie Candell - I gotta be me
TTITLE11=Kevin Henderson - Pay the Price
TTITLE12=Kim West - So wie es ist
TTITLE13=Dusty - Dont cross the River
TTITLE14=Katja Kaye - That makes two of us
TTITLE15=The Krauts - Gebt euch die Hände
TTITLE16=Simple Union - Trouble's here
TTITLE17=Lonestar - Mr. Bojangles
EXTD=
EXTT0=
EXTT1=
EXTT2=
EXTT3=
EXTT4=
EXTT5=
EXTT6=
EXTT7=
EXTT8=
EXTT9=
EXTT10=
EXTT11=
EXTT12=
EXTT13=
EXTT14=
EXTT15=
EXTT16=
EXTT17=
PLAYORDER=
